<svg xmlns="http://www.w3.org/2000/svg" xmlns:xlink="http://www.w3.org/1999/xlink" width="500" zoomAndPan="magnify" viewBox="0 0 375 374.999991" height="500" preserveAspectRatio="xMidYMid meet" version="1.0"><defs><g/><clipPath id="b5493d9fc1"><path d="M 191 152 L 295 152 L 295 229 L 191 229 Z M 191 152 " clip-rule="nonzero"/></clipPath><clipPath id="ab3af84f38"><path d="M 186.429688 163.589844 L 287.019531 139.207031 L 304.507812 211.371094 L 203.921875 235.75 Z M 186.429688 163.589844 " clip-rule="nonzero"/></clipPath><clipPath id="f4fde5617d"><path d="M 186.429688 163.589844 L 287.019531 139.207031 L 304.507812 211.371094 L 203.921875 235.75 Z M 186.429688 163.589844 " clip-rule="nonzero"/></clipPath><clipPath id="77462c8074"><path d="M 77.71875 179.046875 L 96.46875 179.046875 L 96.46875 197.796875 L 77.71875 197.796875 Z M 77.71875 179.046875 " clip-rule="nonzero"/></clipPath></defs><g clip-path="url(#b5493d9fc1)"><g clip-path="url(#ab3af84f38)"><g clip-path="url(#f4fde5617d)"><path fill="#9cff1e" d="M 293.054688 173.332031 C 293.429688 174.753906 294.21875 175.605469 294.867188 176.085938 C 293.890625 177.40625 292.90625 178.722656 291.917969 180.035156 C 290.84375 179.226562 289.09375 177.507812 288.328125 174.613281 C 286.515625 177.042969 284.679688 179.453125 282.820312 181.847656 C 280.699219 184.582031 278.550781 187.292969 276.363281 189.980469 C 274.179688 192.667969 271.960938 195.332031 269.703125 197.964844 C 267.445312 200.597656 265.140625 203.195312 262.785156 205.753906 C 260.425781 208.308594 258.011719 210.824219 255.515625 213.265625 C 253.015625 215.710938 250.429688 218.089844 247.695312 220.335938 C 244.949219 222.574219 242.078125 224.710938 238.804688 226.46875 C 237.160156 227.335938 235.410156 228.113281 233.433594 228.59375 C 232.441406 228.824219 231.390625 228.976562 230.273438 228.960938 C 229.71875 228.957031 229.144531 228.898438 228.570312 228.792969 C 227.992188 228.679688 227.417969 228.511719 226.859375 228.285156 C 226.300781 228.050781 225.765625 227.761719 225.269531 227.421875 C 224.820312 227.074219 224.363281 226.753906 223.964844 226.335938 C 223.542969 225.953125 223.1875 225.496094 222.832031 225.042969 C 222.675781 224.804688 222.519531 224.566406 222.367188 224.324219 C 222.285156 224.203125 222.21875 224.078125 222.15625 223.953125 L 221.964844 223.574219 C 221.476562 222.5625 221.148438 221.496094 220.984375 220.464844 L 220.914062 220.078125 L 220.871094 219.691406 C 220.847656 219.4375 220.816406 219.179688 220.796875 218.925781 C 220.78125 218.425781 220.746094 217.917969 220.769531 217.429688 C 220.8125 215.460938 221.117188 213.601562 221.535156 211.8125 C 221.957031 210.023438 222.484375 208.300781 223.066406 206.617188 C 224.238281 203.246094 225.621094 200.019531 227.054688 196.847656 C 228.492188 193.671875 229.992188 190.554688 231.480469 187.453125 C 232.964844 184.347656 234.441406 181.261719 235.8125 178.15625 C 237.175781 175.058594 238.457031 171.933594 239.382812 168.808594 C 239.839844 167.25 240.199219 165.6875 240.375 164.1875 L 240.445312 163.355469 L 240.449219 163.085938 C 240.453125 162.910156 240.460938 162.726562 240.460938 162.550781 L 240.4375 162.035156 C 240.386719 161.363281 240.273438 160.734375 240.082031 160.203125 C 239.878906 159.679688 239.613281 159.25 239.257812 158.886719 C 239.167969 158.796875 239.089844 158.699219 238.976562 158.625 L 238.820312 158.503906 C 238.769531 158.460938 238.726562 158.417969 238.65625 158.378906 C 238.523438 158.300781 238.398438 158.21875 238.269531 158.136719 L 237.863281 157.929688 C 237.3125 157.675781 236.71875 157.503906 236.082031 157.402344 C 235.445312 157.300781 234.753906 157.304688 234.054688 157.355469 C 232.644531 157.460938 231.160156 157.859375 229.695312 158.390625 C 228.226562 158.9375 226.765625 159.628906 225.335938 160.40625 C 222.46875 161.972656 219.714844 163.871094 217.046875 165.90625 C 214.378906 167.945312 211.796875 170.132812 209.285156 172.40625 C 206.777344 174.683594 204.332031 177.046875 201.949219 179.472656 C 200.753906 180.6875 199.578125 181.914062 198.417969 183.15625 C 197.839844 183.78125 197.265625 184.40625 196.695312 185.035156 C 196.128906 185.65625 195.554688 186.300781 195.019531 186.914062 L 191.3125 183.726562 C 191.90625 183.039062 192.480469 182.398438 193.070312 181.75 C 193.65625 181.101562 194.246094 180.457031 194.839844 179.820312 C 196.03125 178.546875 197.234375 177.285156 198.457031 176.042969 C 200.898438 173.554688 203.410156 171.132812 206.003906 168.78125 C 208.59375 166.433594 211.269531 164.160156 214.074219 162.015625 C 216.882812 159.878906 219.8125 157.851562 222.992188 156.109375 C 224.585938 155.246094 226.246094 154.453125 228.003906 153.796875 C 229.769531 153.160156 231.636719 152.636719 233.667969 152.476562 C 234.683594 152.402344 235.726562 152.398438 236.792969 152.5625 C 237.859375 152.722656 238.933594 153.03125 239.941406 153.503906 C 240.191406 153.628906 240.445312 153.75 240.6875 153.882812 L 241.398438 154.328125 C 241.511719 154.394531 241.632812 154.496094 241.75 154.585938 L 242.101562 154.863281 C 242.339844 155.039062 242.550781 155.257812 242.765625 155.476562 C 243.617188 156.34375 244.265625 157.414062 244.671875 158.5 C 245.066406 159.589844 245.242188 160.671875 245.320312 161.714844 L 245.351562 162.488281 C 245.355469 162.742188 245.34375 162.992188 245.339844 163.242188 L 245.328125 163.621094 L 245.300781 163.988281 L 245.238281 164.71875 C 245.015625 166.640625 244.585938 168.445312 244.074219 170.191406 C 243.042969 173.671875 241.691406 176.929688 240.289062 180.132812 C 238.875 183.328125 237.382812 186.457031 235.894531 189.566406 C 234.402344 192.675781 232.917969 195.761719 231.511719 198.863281 C 230.109375 201.964844 228.78125 205.078125 227.691406 208.214844 C 227.148438 209.785156 226.667969 211.359375 226.300781 212.921875 C 225.933594 214.484375 225.691406 216.046875 225.660156 217.519531 C 225.640625 217.894531 225.675781 218.246094 225.679688 218.605469 C 225.691406 218.78125 225.714844 218.953125 225.730469 219.125 L 225.757812 219.382812 L 225.804688 219.628906 C 225.90625 220.300781 226.109375 220.894531 226.363281 221.429688 L 226.460938 221.628906 C 226.492188 221.695312 226.527344 221.761719 226.570312 221.820312 C 226.648438 221.9375 226.726562 222.058594 226.800781 222.183594 C 226.988281 222.402344 227.152344 222.636719 227.375 222.828125 C 227.5625 223.042969 227.824219 223.207031 228.050781 223.394531 C 228.265625 223.539062 228.492188 223.660156 228.726562 223.761719 C 228.964844 223.855469 229.21875 223.933594 229.488281 223.988281 C 229.761719 224.03125 230.046875 224.066406 230.347656 224.070312 C 230.957031 224.078125 231.621094 223.992188 232.304688 223.832031 C 233.679688 223.5 235.113281 222.890625 236.507812 222.148438 C 239.3125 220.648438 242.007812 218.667969 244.589844 216.554688 C 247.179688 214.429688 249.667969 212.140625 252.09375 209.769531 C 254.519531 207.398438 256.875 204.941406 259.1875 202.4375 C 261.5 199.929688 263.765625 197.371094 265.992188 194.777344 C 268.21875 192.183594 270.410156 189.554688 272.566406 186.894531 C 274.726562 184.238281 276.855469 181.554688 278.957031 178.847656 C 280.796875 176.476562 282.613281 174.089844 284.410156 171.683594 C 281.425781 171.753906 279.304688 170.523438 278.230469 169.714844 C 279.183594 168.445312 280.132812 167.175781 281.074219 165.902344 C 281.722656 166.378906 282.761719 166.890625 284.222656 166.84375 C 285.675781 166.796875 287.570312 166.179688 289.851562 164.402344 L 293.691406 167.105469 C 292.710938 169.917969 292.679688 171.902344 293.054688 173.332031 Z M 293.054688 173.332031 " fill-opacity="1" fill-rule="nonzero"/></g></g></g><g clip-path="url(#77462c8074)"><path fill="#9cff1e" d="M 96.402344 185.847656 L 96.402344 190.976562 C 90.191406 192.792969 89.261719 196.015625 89.261719 197.773438 L 83.917969 197.773438 C 83.917969 196.304688 84.257812 193.648438 86.296875 191.082031 L 77.722656 191.082031 L 77.722656 185.738281 L 86.296875 185.738281 C 84.257812 183.175781 83.917969 180.515625 83.917969 179.046875 L 89.261719 179.046875 C 89.261719 180.804688 90.191406 184.03125 96.402344 185.847656 Z M 96.402344 185.847656 " fill-opacity="1" fill-rule="nonzero"/></g><g fill="#ffffff" fill-opacity="1"><g transform="translate(109.280066, 197.012072)"><g><path d="M 0.515625 0 L 0.515625 -17.9375 L 16.140625 -17.9375 C 17.503906 -17.9375 18.570312 -17.742188 19.34375 -17.359375 C 20.113281 -16.972656 20.660156 -16.4375 20.984375 -15.75 C 21.304688 -15.070312 21.46875 -14.28125 21.46875 -13.375 C 21.46875 -12.789062 21.34375 -12.210938 21.09375 -11.640625 C 20.851562 -11.066406 20.507812 -10.523438 20.0625 -10.015625 C 20.851562 -9.453125 21.5 -8.769531 22 -7.96875 C 22.5 -7.164062 22.75 -6.273438 22.75 -5.296875 C 22.75 -4.328125 22.546875 -3.441406 22.140625 -2.640625 C 21.734375 -1.835938 21.101562 -1.195312 20.25 -0.71875 C 19.394531 -0.238281 18.28125 0 16.90625 0 Z M 7.171875 -11.640625 L 13.328125 -11.640625 C 13.671875 -11.640625 14.003906 -11.679688 14.328125 -11.765625 C 14.648438 -11.847656 14.8125 -12.128906 14.8125 -12.609375 C 14.8125 -13.097656 14.648438 -13.378906 14.328125 -13.453125 C 14.003906 -13.535156 13.671875 -13.578125 13.328125 -13.578125 L 7.171875 -13.578125 Z M 7.171875 -4.875 L 14.609375 -4.875 C 14.953125 -4.875 15.285156 -4.910156 15.609375 -4.984375 C 15.929688 -5.054688 16.09375 -5.332031 16.09375 -5.8125 C 16.09375 -6.289062 15.929688 -6.566406 15.609375 -6.640625 C 15.285156 -6.722656 14.953125 -6.765625 14.609375 -6.765625 L 7.171875 -6.765625 Z M 7.171875 -4.875 "/></g></g></g><g fill="#ffffff" fill-opacity="1"><g transform="translate(132.293884, 197.012072)"><g><path d="M 0.515625 0 L 0.515625 -17.9375 L 7.171875 -17.9375 L 7.171875 -5.640625 L 18.96875 -5.640625 L 18.96875 0 Z M 0.515625 0 "/></g></g></g><g fill="#ffffff" fill-opacity="1"><g transform="translate(151.514778, 197.012072)"><g><path d="M 11.53125 0.25 C 7.582031 0.25 4.710938 -0.507812 2.921875 -2.03125 C 1.140625 -3.550781 0.25 -5.875 0.25 -9 C 0.25 -12.101562 1.140625 -14.410156 2.921875 -15.921875 C 4.710938 -17.429688 7.582031 -18.1875 11.53125 -18.1875 C 15.457031 -18.1875 18.316406 -17.429688 20.109375 -15.921875 C 21.910156 -14.410156 22.8125 -12.101562 22.8125 -9 C 22.8125 -5.882812 21.910156 -3.5625 20.109375 -2.03125 C 18.316406 -0.507812 15.457031 0.25 11.53125 0.25 Z M 11.53125 -5.375 C 12.84375 -5.375 13.828125 -5.546875 14.484375 -5.890625 C 15.148438 -6.234375 15.59375 -6.675781 15.8125 -7.21875 C 16.03125 -7.769531 16.140625 -8.363281 16.140625 -9 C 16.140625 -9.625 16.03125 -10.207031 15.8125 -10.75 C 15.59375 -11.289062 15.148438 -11.726562 14.484375 -12.0625 C 13.828125 -12.394531 12.84375 -12.5625 11.53125 -12.5625 C 10.21875 -12.5625 9.226562 -12.394531 8.5625 -12.0625 C 7.90625 -11.726562 7.46875 -11.289062 7.25 -10.75 C 7.03125 -10.207031 6.921875 -9.625 6.921875 -9 C 6.921875 -8.363281 7.03125 -7.765625 7.25 -7.203125 C 7.46875 -6.648438 7.910156 -6.207031 8.578125 -5.875 C 9.242188 -5.539062 10.226562 -5.375 11.53125 -5.375 Z M 11.53125 -5.375 "/></g></g></g><g fill="#ffffff" fill-opacity="1"><g transform="translate(174.579851, 197.012072)"><g><path d="M 10.765625 0.25 C 7.460938 0.25 4.882812 -0.507812 3.03125 -2.03125 C 1.175781 -3.550781 0.25 -5.875 0.25 -9 C 0.25 -12.101562 1.207031 -14.410156 3.125 -15.921875 C 5.039062 -17.429688 7.84375 -18.1875 11.53125 -18.1875 C 18.707031 -18.1875 22.441406 -15.71875 22.734375 -10.78125 L 15.90625 -10.78125 C 15.789062 -11.25 15.382812 -11.660156 14.6875 -12.015625 C 14 -12.378906 12.945312 -12.5625 11.53125 -12.5625 C 10.21875 -12.5625 9.226562 -12.390625 8.5625 -12.046875 C 7.90625 -11.703125 7.46875 -11.242188 7.25 -10.671875 C 7.03125 -10.097656 6.921875 -9.453125 6.921875 -8.734375 C 6.921875 -8.015625 7.03125 -7.335938 7.25 -6.703125 C 7.46875 -6.078125 7.910156 -5.570312 8.578125 -5.1875 C 9.242188 -4.800781 10.226562 -4.609375 11.53125 -4.609375 C 12.8125 -4.609375 13.832031 -4.71875 14.59375 -4.9375 C 15.351562 -5.164062 15.789062 -5.578125 15.90625 -6.171875 L 11.09375 -6.171875 L 11.09375 -9.765625 L 22.734375 -9.765625 L 22.734375 0 L 18.890625 0 L 18.40625 -2.59375 C 17.644531 -1.695312 16.648438 -1 15.421875 -0.5 C 14.191406 0 12.640625 0.25 10.765625 0.25 Z M 10.765625 0.25 "/></g></g></g><g fill="#ffffff" fill-opacity="1"><g transform="translate(197.568042, 197.012072)"><g/></g></g><g fill="#ffffff" fill-opacity="1"><g transform="translate(207.81919, 197.012072)"><g><path d="M 7.9375 0 L 7.9375 -12.296875 L 0.25 -12.296875 L 0.25 -17.9375 L 22.296875 -17.9375 L 22.296875 -12.296875 L 14.609375 -12.296875 L 14.609375 0 Z M 7.9375 0 "/></g></g></g><g fill="#ffffff" fill-opacity="1"><g transform="translate(230.371711, 197.012072)"><g><path d="M 0.515625 0 L 0.515625 -17.9375 L 19.46875 -17.9375 L 19.46875 -12.8125 L 7.171875 -12.8125 L 7.171875 -11.140625 L 19.46875 -11.140625 L 19.46875 -6.796875 L 7.171875 -6.796875 L 7.171875 -5.125 L 19.46875 -5.125 L 19.46875 0 Z M 0.515625 0 "/></g></g></g><g fill="#ffffff" fill-opacity="1"><g transform="translate(250.105163, 197.012072)"><g><path d="M 11.53125 0.25 C 7.582031 0.25 4.710938 -0.507812 2.921875 -2.03125 C 1.140625 -3.550781 0.25 -5.875 0.25 -9 C 0.25 -12.101562 1.140625 -14.410156 2.921875 -15.921875 C 4.710938 -17.429688 7.582031 -18.1875 11.53125 -18.1875 C 15.113281 -18.1875 17.84375 -17.53125 19.71875 -16.21875 C 21.59375 -14.914062 22.597656 -12.847656 22.734375 -10.015625 L 15.90625 -10.015625 C 15.789062 -10.867188 15.382812 -11.503906 14.6875 -11.921875 C 14 -12.347656 12.945312 -12.5625 11.53125 -12.5625 C 10.21875 -12.5625 9.226562 -12.394531 8.5625 -12.0625 C 7.90625 -11.726562 7.46875 -11.289062 7.25 -10.75 C 7.03125 -10.207031 6.921875 -9.625 6.921875 -9 C 6.921875 -8.363281 7.03125 -7.765625 7.25 -7.203125 C 7.46875 -6.648438 7.910156 -6.207031 8.578125 -5.875 C 9.242188 -5.539062 10.226562 -5.375 11.53125 -5.375 C 12.945312 -5.375 14 -5.59375 14.6875 -6.03125 C 15.382812 -6.46875 15.789062 -7.113281 15.90625 -7.96875 L 22.734375 -7.96875 C 22.597656 -5.132812 21.597656 -3.054688 19.734375 -1.734375 C 17.867188 -0.410156 15.132812 0.25 11.53125 0.25 Z M 11.53125 0.25 "/></g></g></g><g fill="#ffffff" fill-opacity="1"><g transform="translate(273.09336, 197.012072)"><g><path d="M 0.515625 0 L 0.515625 -17.9375 L 7.171875 -17.9375 L 7.171875 -11.78125 L 17.6875 -11.78125 L 17.6875 -17.9375 L 24.34375 -17.9375 L 24.34375 0 L 17.6875 0 L 17.6875 -6.15625 L 7.171875 -6.15625 L 7.171875 0 Z M 0.515625 0 "/></g></g></g><g fill="#9cff1e" fill-opacity="1"><g transform="translate(109.280066, 212.020609)"><g><path d="M 3.390625 0 L 3.390625 -5.25 L 0.109375 -5.25 L 0.109375 -7.671875 L 9.53125 -7.671875 L 9.53125 -5.25 L 6.25 -5.25 L 6.25 0 Z M 3.390625 0 "/></g></g></g><g fill="#9cff1e" fill-opacity="1"><g transform="translate(118.912676, 212.020609)"><g><path d="M 0.21875 0 L 0.21875 -7.671875 L 8.328125 -7.671875 L 8.328125 -5.484375 L 3.0625 -5.484375 L 3.0625 -4.765625 L 8.328125 -4.765625 L 8.328125 -2.90625 L 3.0625 -2.90625 L 3.0625 -2.1875 L 8.328125 -2.1875 L 8.328125 0 Z M 0.21875 0 "/></g></g></g><g fill="#9cff1e" fill-opacity="1"><g transform="translate(127.341208, 212.020609)"><g><path d="M 4.921875 0.109375 C 3.242188 0.109375 2.019531 -0.210938 1.25 -0.859375 C 0.488281 -1.515625 0.109375 -2.507812 0.109375 -3.84375 C 0.109375 -5.175781 0.488281 -6.164062 1.25 -6.8125 C 2.019531 -7.457031 3.242188 -7.78125 4.921875 -7.78125 C 6.460938 -7.78125 7.628906 -7.5 8.421875 -6.9375 C 9.222656 -6.375 9.65625 -5.488281 9.71875 -4.28125 L 6.796875 -4.28125 C 6.742188 -4.644531 6.570312 -4.914062 6.28125 -5.09375 C 5.988281 -5.269531 5.535156 -5.359375 4.921875 -5.359375 C 4.359375 -5.359375 3.9375 -5.285156 3.65625 -5.140625 C 3.375 -5.003906 3.1875 -4.820312 3.09375 -4.59375 C 3 -4.363281 2.953125 -4.113281 2.953125 -3.84375 C 2.953125 -3.570312 3 -3.316406 3.09375 -3.078125 C 3.1875 -2.847656 3.375 -2.660156 3.65625 -2.515625 C 3.945312 -2.367188 4.367188 -2.296875 4.921875 -2.296875 C 5.535156 -2.296875 5.988281 -2.390625 6.28125 -2.578125 C 6.570312 -2.765625 6.742188 -3.039062 6.796875 -3.40625 L 9.71875 -3.40625 C 9.65625 -2.195312 9.222656 -1.304688 8.421875 -0.734375 C 7.628906 -0.171875 6.460938 0.109375 4.921875 0.109375 Z M 4.921875 0.109375 "/></g></g></g><g fill="#9cff1e" fill-opacity="1"><g transform="translate(137.159901, 212.020609)"><g><path d="M 0.21875 0 L 0.21875 -7.671875 L 3.0625 -7.671875 L 3.0625 -5.03125 L 7.5625 -5.03125 L 7.5625 -7.671875 L 10.40625 -7.671875 L 10.40625 0 L 7.5625 0 L 7.5625 -2.625 L 3.0625 -2.625 L 3.0625 0 Z M 0.21875 0 "/></g></g></g><g fill="#9cff1e" fill-opacity="1"><g transform="translate(147.777663, 212.020609)"><g><path d="M 0.21875 0 L 0.21875 -7.671875 L 3.9375 -7.671875 L 7.25 -3.140625 L 7.25 -7.671875 L 10.09375 -7.671875 L 10.09375 0 L 6.375 0 L 3.0625 -4.53125 L 3.0625 0 Z M 0.21875 0 "/></g></g></g><g fill="#9cff1e" fill-opacity="1"><g transform="translate(158.088929, 212.020609)"><g><path d="M 4.921875 0.109375 C 3.242188 0.109375 2.019531 -0.210938 1.25 -0.859375 C 0.488281 -1.515625 0.109375 -2.507812 0.109375 -3.84375 C 0.109375 -5.175781 0.488281 -6.164062 1.25 -6.8125 C 2.019531 -7.457031 3.242188 -7.78125 4.921875 -7.78125 C 6.609375 -7.78125 7.832031 -7.457031 8.59375 -6.8125 C 9.363281 -6.164062 9.75 -5.175781 9.75 -3.84375 C 9.75 -2.507812 9.363281 -1.515625 8.59375 -0.859375 C 7.832031 -0.210938 6.609375 0.109375 4.921875 0.109375 Z M 4.921875 -2.296875 C 5.484375 -2.296875 5.90625 -2.367188 6.1875 -2.515625 C 6.46875 -2.660156 6.65625 -2.847656 6.75 -3.078125 C 6.851562 -3.316406 6.90625 -3.570312 6.90625 -3.84375 C 6.90625 -4.113281 6.851562 -4.363281 6.75 -4.59375 C 6.65625 -4.820312 6.46875 -5.003906 6.1875 -5.140625 C 5.90625 -5.285156 5.484375 -5.359375 4.921875 -5.359375 C 4.359375 -5.359375 3.9375 -5.285156 3.65625 -5.140625 C 3.375 -5.003906 3.1875 -4.820312 3.09375 -4.59375 C 3 -4.363281 2.953125 -4.113281 2.953125 -3.84375 C 2.953125 -3.570312 3 -3.316406 3.09375 -3.078125 C 3.1875 -2.847656 3.375 -2.660156 3.65625 -2.515625 C 3.945312 -2.367188 4.367188 -2.296875 4.921875 -2.296875 Z M 4.921875 -2.296875 "/></g></g></g><g fill="#9cff1e" fill-opacity="1"><g transform="translate(167.94046, 212.020609)"><g><path d="M 0.21875 0 L 0.21875 -7.671875 L 3.0625 -7.671875 L 3.0625 -2.40625 L 8.109375 -2.40625 L 8.109375 0 Z M 0.21875 0 "/></g></g></g><g fill="#9cff1e" fill-opacity="1"><g transform="translate(176.150068, 212.020609)"><g><path d="M 4.921875 0.109375 C 3.242188 0.109375 2.019531 -0.210938 1.25 -0.859375 C 0.488281 -1.515625 0.109375 -2.507812 0.109375 -3.84375 C 0.109375 -5.175781 0.488281 -6.164062 1.25 -6.8125 C 2.019531 -7.457031 3.242188 -7.78125 4.921875 -7.78125 C 6.609375 -7.78125 7.832031 -7.457031 8.59375 -6.8125 C 9.363281 -6.164062 9.75 -5.175781 9.75 -3.84375 C 9.75 -2.507812 9.363281 -1.515625 8.59375 -0.859375 C 7.832031 -0.210938 6.609375 0.109375 4.921875 0.109375 Z M 4.921875 -2.296875 C 5.484375 -2.296875 5.90625 -2.367188 6.1875 -2.515625 C 6.46875 -2.660156 6.65625 -2.847656 6.75 -3.078125 C 6.851562 -3.316406 6.90625 -3.570312 6.90625 -3.84375 C 6.90625 -4.113281 6.851562 -4.363281 6.75 -4.59375 C 6.65625 -4.820312 6.46875 -5.003906 6.1875 -5.140625 C 5.90625 -5.285156 5.484375 -5.359375 4.921875 -5.359375 C 4.359375 -5.359375 3.9375 -5.285156 3.65625 -5.140625 C 3.375 -5.003906 3.1875 -4.820312 3.09375 -4.59375 C 3 -4.363281 2.953125 -4.113281 2.953125 -3.84375 C 2.953125 -3.570312 3 -3.316406 3.09375 -3.078125 C 3.1875 -2.847656 3.375 -2.660156 3.65625 -2.515625 C 3.945312 -2.367188 4.367188 -2.296875 4.921875 -2.296875 Z M 4.921875 -2.296875 "/></g></g></g><g fill="#9cff1e" fill-opacity="1"><g transform="translate(186.001599, 212.020609)"><g><path d="M 4.59375 0.109375 C 3.1875 0.109375 2.085938 -0.210938 1.296875 -0.859375 C 0.503906 -1.515625 0.109375 -2.507812 0.109375 -3.84375 C 0.109375 -5.175781 0.515625 -6.164062 1.328125 -6.8125 C 2.148438 -7.457031 3.347656 -7.78125 4.921875 -7.78125 C 7.992188 -7.78125 9.59375 -6.722656 9.71875 -4.609375 L 6.796875 -4.609375 C 6.742188 -4.804688 6.570312 -4.976562 6.28125 -5.125 C 5.988281 -5.28125 5.535156 -5.359375 4.921875 -5.359375 C 4.359375 -5.359375 3.9375 -5.285156 3.65625 -5.140625 C 3.375 -4.992188 3.1875 -4.796875 3.09375 -4.546875 C 3 -4.304688 2.953125 -4.035156 2.953125 -3.734375 C 2.953125 -3.429688 3 -3.144531 3.09375 -2.875 C 3.1875 -2.601562 3.375 -2.382812 3.65625 -2.21875 C 3.945312 -2.050781 4.367188 -1.96875 4.921875 -1.96875 C 5.472656 -1.96875 5.910156 -2.015625 6.234375 -2.109375 C 6.554688 -2.203125 6.742188 -2.378906 6.796875 -2.640625 L 4.75 -2.640625 L 4.75 -4.171875 L 9.71875 -4.171875 L 9.71875 0 L 8.078125 0 L 7.859375 -1.109375 C 7.535156 -0.722656 7.113281 -0.421875 6.59375 -0.203125 C 6.070312 0.00390625 5.40625 0.109375 4.59375 0.109375 Z M 4.59375 0.109375 "/></g></g></g><g fill="#9cff1e" fill-opacity="1"><g transform="translate(195.820289, 212.020609)"><g><path d="M 4.015625 0 L 4.015625 -2.515625 L 0.109375 -7.671875 L 3.390625 -7.671875 L 5.4375 -4.8125 L 7.46875 -7.671875 L 10.75 -7.671875 L 6.859375 -2.515625 L 6.859375 0 Z M 4.015625 0 "/></g></g></g></svg>